# xmcd
#
# Track frame offsets: 
#        150
#        25646
#        53755
#        84676
#        113674
#        140312
#        166512
#        229670
#        259627
#
# Disc length: 3784 seconds
#
# Revision: 0
# Processed by: cddbd v1.5.1PL0 Copyright (c) Steve Scherf et al.
# Submitted via: ExactAudioCopy v0.95a5
#
DISCID=600ec609
DTITLE=Eric Clapton and Band - Montreux  1986 Disc 1
DYEAR=1986
DGENRE=Blues
TTITLE0=Crossroads
TTITLE1=White Room
TTITLE2=I Shot The Sheriff
TTITLE3=Wanna Make Love To You
TTITLE4=Run
TTITLE5=Miss You
TTITLE6=Same Old Blues
TTITLE7=Tearing Us Apart
TTITLE8=Holy Mother
EXTD=
EXTT0=
EXTT1=
EXTT2=
EXTT3=
EXTT4=
EXTT5=
EXTT6=
EXTT7=
EXTT8=
PLAYORDER=
